# xmcd CD database file
#
# Track frame offsets:
#	150
#	32415
#	72162
#	102615
#	131750
#	162560
#	183530
#
# Disc length: 2845 seconds
#
# Revision: 2
# Processed by: cddbd v1.5.1PL2 Copyright (c) Steve Scherf et al.
# Submitted via: CDex 1.51
#
DISCID=620b1b07
DTITLE=Søren Møller and Dick Oatts - Storytelling
DYEAR=2005
DGENRE=Jazz
TTITLE0=Serenade
TTITLE1=Hymn
TTITLE2=Elegy
TTITLE3=Lilja's Dance
TTITLE4=Ode
TTITLE5=Romance
TTITLE6=Brahm's Symphony #3.3rd Movement
EXTD=YEAR: 2005
EXTT0=
EXTT1=
EXTT2=
EXTT3=
EXTT4=
EXTT5=
EXTT6=
PLAYORDER=
